<svg width="17.000000" height="20.799316" viewBox="0 0 17 20.7993" fill="none" xmlns="http://www.w3.org/2000/svg" xmlns:xlink="http://www.w3.org/1999/xlink">
	<desc>
			Created with Pixso.
	</desc>
	<defs/>
	<path id="Combined-Shape" d="M11.67 0C15.05 0 17 1.67 17 4.59L17 19.09C17 19.7 16.68 20.25 16.15 20.55C15.63 20.86 15 20.87 14.47 20.57L8.52 17.21L2.52 20.57C2.26 20.72 1.98 20.79 1.69 20.79C1.4 20.79 1.1 20.72 0.83 20.56C0.31 20.25 0 19.7 0 19.1L0 4.41C0 1.6 1.94 0 5.32 0L11.67 0ZM11.67 1.49L5.32 1.49C2.78 1.49 1.49 2.47 1.49 4.41L1.49 19.1C1.49 19.19 1.55 19.24 1.59 19.27C1.64 19.29 1.71 19.31 1.79 19.27L8.16 15.7C8.38 15.57 8.66 15.57 8.89 15.7L15.2 19.26C15.28 19.31 15.36 19.29 15.4 19.26C15.45 19.24 15.5 19.18 15.5 19.09L15.5 4.47C15.49 3.62 15.32 1.49 11.67 1.49ZM12.11 6.71C12.52 6.71 12.86 7.04 12.86 7.46C12.86 7.87 12.52 8.2 12.11 8.2L4.81 8.2C4.39 8.2 4.06 7.87 4.06 7.46C4.06 7.04 4.39 6.71 4.81 6.71L12.11 6.71Z" fill="#8F8F8F" fill-opacity="1.000000" fill-rule="evenodd"/>
</svg>
