<svg width="21.466873" height="22.596680" viewBox="0 0 21.4669 22.5967" fill="none" xmlns="http://www.w3.org/2000/svg" xmlns:xlink="http://www.w3.org/1999/xlink">
	<desc>
			Created with Pixso.
	</desc>
	<defs/>
	<path id="Vector" d="M7.49 21.21L7.49 17.75C7.49 16.87 8.21 16.15 9.1 16.15L12.35 16.15C12.77 16.15 13.18 16.32 13.48 16.62C13.79 16.92 13.96 17.33 13.96 17.75L13.96 21.21C13.95 21.57 14.1 21.92 14.36 22.19C14.62 22.45 14.97 22.59 15.34 22.59L17.56 22.59C18.59 22.59 19.58 22.19 20.32 21.46C21.05 20.74 21.46 19.75 21.46 18.73L21.46 8.88C21.46 8.05 21.09 7.27 20.45 6.73L12.91 0.76C11.6 -0.29 9.72 -0.26 8.45 0.84L1.09 6.73C0.42 7.25 0.01 8.04 0 8.88L0 18.72C0 20.86 1.74 22.59 3.9 22.59L6.06 22.59C6.83 22.59 7.46 21.98 7.46 21.22L7.49 21.21Z" fill="#8C67F6" fill-opacity="1.000000" fill-rule="nonzero"/>
</svg>
