<svg width="22.046387" height="21.000000" viewBox="0 0 22.0464 21" fill="none" xmlns="http://www.w3.org/2000/svg" xmlns:xlink="http://www.w3.org/1999/xlink">
	<desc>
			Created with Pixso.
	</desc>
	<defs/>
	<path id="Combined-Shape" d="M11.02 1.11C12.77 0.01 15.09 -0.3 17.1 0.35C21.47 1.75 22.83 6.52 21.62 10.31C19.74 16.27 11.75 20.71 11.41 20.89C11.29 20.96 11.15 21 11.02 21C10.89 21 10.75 20.96 10.63 20.9C10.3 20.71 2.36 16.34 0.42 10.31C0.42 10.31 0.42 10.31 0.42 10.31C-0.79 6.52 0.56 1.75 4.92 0.35C6.98 -0.32 9.21 -0.03 11.02 1.11ZM5.42 1.88C1.89 3.02 1 6.82 1.96 9.82C3.47 14.52 9.43 18.31 11.02 19.25C12.61 18.31 18.62 14.47 20.08 9.82C21.04 6.82 20.15 3.02 16.61 1.88C14.89 1.33 12.89 1.67 11.51 2.74C11.23 2.96 10.83 2.96 10.53 2.74C9.07 1.64 7.16 1.32 5.42 1.88ZM15.58 4.02C17.04 4.5 18.07 5.8 18.2 7.33C18.23 7.78 17.9 8.17 17.46 8.2C17.43 8.2 17.41 8.21 17.39 8.21C16.97 8.21 16.62 7.89 16.59 7.46C16.52 6.58 15.92 5.83 15.08 5.56C14.65 5.42 14.42 4.97 14.56 4.54C14.7 4.12 15.15 3.89 15.58 4.02Z" fill="#8F8F8F" fill-opacity="1.000000" fill-rule="evenodd"/>
</svg>
