<svg width="25.975250" height="25.000000" viewBox="0 0 25.9753 25" fill="none" xmlns="http://www.w3.org/2000/svg" xmlns:xlink="http://www.w3.org/1999/xlink">
	<desc>
			Created with Pixso.
	</desc>
	<defs/>
	<path id="Vector" d="M11.86 0C14.96 0 17.5 2.48 17.5 5.55L17.5 11.53L9.86 11.53C9.32 11.53 8.88 11.96 8.88 12.5C8.88 13.02 9.32 13.46 9.86 13.46L17.5 13.46L17.5 19.43C17.5 22.5 14.96 25 11.84 25L5.64 25C2.53 25 0 22.51 0 19.45L0 5.56C0 2.48 2.54 0 5.65 0L11.86 0ZM20.67 8.18C21.05 7.8 21.66 7.8 22.03 8.17L25.68 11.81C25.87 12 25.97 12.23 25.97 12.5C25.97 12.75 25.87 13 25.68 13.17L22.03 16.81C21.85 17 21.6 17.1 21.36 17.1C21.11 17.1 20.86 17 20.67 16.81C20.3 16.43 20.3 15.82 20.67 15.45L22.67 13.46L17.5 13.46L17.5 11.53L22.67 11.53L20.67 9.55C20.3 9.17 20.3 8.56 20.67 8.18Z" fill="#484A51" fill-opacity="1.000000" fill-rule="nonzero"/>
</svg>
