<svg width="25.000000" height="25.000000" viewBox="0 0 25 25" fill="none" xmlns="http://www.w3.org/2000/svg" xmlns:xlink="http://www.w3.org/1999/xlink">
	<desc>
			Created with Pixso.
	</desc>
	<defs/>
	<path id="Vector" d="M12.52 0C19.62 0 25 5.82 25 12.48C25 20.2 18.7 25 12.5 25C10.45 25 8.17 24.44 6.34 23.37C5.71 22.98 5.17 22.69 4.48 22.92L1.96 23.67C1.32 23.87 0.75 23.37 0.93 22.69L1.77 19.89C1.91 19.5 1.88 19.09 1.68 18.76C0.61 16.78 0 14.62 0 12.51C0 5.93 5.26 0 12.52 0ZM18.23 10.92C17.35 10.92 16.63 11.64 16.63 12.53C16.63 13.4 17.35 14.13 18.23 14.13C19.12 14.13 19.83 13.4 19.83 12.53C19.83 11.64 19.12 10.92 18.23 10.92ZM12.47 10.92C11.6 10.91 10.87 11.64 10.87 12.51C10.87 13.4 11.58 14.12 12.47 14.13C13.36 14.13 14.07 13.4 14.07 12.53C14.07 11.64 13.36 10.92 12.47 10.92ZM6.71 10.92C5.82 10.92 5.11 11.64 5.11 12.53C5.11 13.4 5.83 14.13 6.71 14.13C7.59 14.12 8.31 13.4 8.31 12.53C8.31 11.64 7.59 10.92 6.71 10.92Z" fill="#8F8F8F" fill-opacity="1.000000" fill-rule="nonzero"/>
</svg>
