<svg width="20.828857" height="24.504395" viewBox="0 0 20.8289 24.5044" fill="none" xmlns="http://www.w3.org/2000/svg" xmlns:xlink="http://www.w3.org/1999/xlink">
	<desc>
			Created with Pixso.
	</desc>
	<defs/>
	<path id="Vector" d="M7.91 21.1C8.53 20.97 12.26 20.97 12.87 21.1C13.39 21.22 13.96 21.51 13.96 22.12C13.93 22.71 13.59 23.23 13.11 23.56C12.49 24.04 11.77 24.35 11.01 24.46C10.59 24.51 10.18 24.51 9.78 24.46C9.02 24.35 8.29 24.04 7.68 23.56C7.2 23.23 6.85 22.71 6.82 22.12C6.82 21.51 7.39 21.22 7.91 21.1ZM10.46 0C13.01 0 15.62 1.2 17.16 3.21C18.17 4.5 18.63 5.79 18.63 7.8L18.63 8.32C18.63 9.86 19.03 10.77 19.93 11.81C20.61 12.58 20.82 13.57 20.82 14.64C20.82 15.72 20.47 16.73 19.77 17.56C18.84 18.55 17.54 19.18 16.21 19.29C14.29 19.45 12.36 19.59 10.41 19.59C8.46 19.59 6.53 19.51 4.61 19.29C3.28 19.18 1.97 18.55 1.05 17.56C0.35 16.73 0 15.72 0 14.64C0 13.57 0.21 12.58 0.89 11.81C1.81 10.77 2.19 9.86 2.19 8.32L2.19 7.8C2.19 5.74 2.71 4.39 3.77 3.07C5.34 1.15 7.86 0 10.36 0L10.46 0Z" fill="#8F8F8F" fill-opacity="1.000000" fill-rule="nonzero"/>
</svg>
