<svg width="19.593262" height="19.593140" viewBox="0 0 19.5933 19.5931" fill="none" xmlns="http://www.w3.org/2000/svg" xmlns:xlink="http://www.w3.org/1999/xlink">
	<desc>
			Created with Pixso.
	</desc>
	<defs/>
	<path id="Vector" d="M14.04 0C17.36 0 19.59 2.32 19.59 5.79L19.59 13.79C19.59 17.26 17.36 19.59 14.04 19.59L5.55 19.59C2.23 19.59 0 17.26 0 13.79L0 5.79C0 2.32 2.23 0 5.55 0L14.04 0ZM15.12 10.33C14.07 9.68 13.26 10.6 13.04 10.89C12.83 11.17 12.65 11.49 12.45 11.8C11.99 12.57 11.45 13.47 10.53 13.98C9.18 14.73 8.16 14.04 7.42 13.54C7.15 13.36 6.88 13.18 6.61 13.06C5.96 12.78 5.36 13.1 4.49 14.22C4.02 14.8 3.57 15.38 3.1 15.96C2.83 16.3 2.89 16.83 3.27 17.06C3.86 17.43 4.59 17.63 5.41 17.63L13.67 17.63C14.13 17.63 14.6 17.57 15.05 17.42C16.05 17.09 16.84 16.34 17.26 15.35C17.61 14.52 17.78 13.51 17.45 12.67C17.34 12.39 17.18 12.13 16.95 11.9C16.35 11.3 15.79 10.74 15.12 10.33ZM6.36 3.91C5.01 3.91 3.91 5.01 3.91 6.36C3.91 7.71 5.01 8.81 6.36 8.81C7.71 8.81 8.81 7.71 8.81 6.36C8.81 5.01 7.71 3.91 6.36 3.91Z" fill="#8F8F8F" fill-opacity="1.000000" fill-rule="nonzero"/>
</svg>
