<svg width="20.536812" height="21.000000" viewBox="0 0 20.5368 21" fill="none" xmlns="http://www.w3.org/2000/svg" xmlns:xlink="http://www.w3.org/1999/xlink">
	<desc>
			Created with Pixso.
	</desc>
	<defs/>
	<path id="Combined-Shape" d="M9.86 0C15.31 0 19.73 4.42 19.73 9.86C19.73 12.43 18.75 14.77 17.14 16.53L20.31 19.7C20.61 19.99 20.61 20.47 20.31 20.77C20.16 20.92 19.97 21 19.77 21C19.58 21 19.38 20.92 19.23 20.77L16.02 17.57C14.33 18.92 12.19 19.73 9.86 19.73C4.42 19.73 0 15.31 0 9.86C0 4.42 4.42 0 9.86 0ZM9.86 1.52C5.26 1.52 1.52 5.26 1.52 9.86C1.52 14.47 5.26 18.21 9.86 18.21C14.47 18.21 18.21 14.47 18.21 9.86C18.21 5.26 14.47 1.52 9.86 1.52Z" fill="#8F8F8F" fill-opacity="1.000000" fill-rule="evenodd"/>
</svg>
