<svg width="22.596710" height="23.786133" viewBox="0 0 22.5967 23.7861" fill="none" xmlns="http://www.w3.org/2000/svg" xmlns:xlink="http://www.w3.org/1999/xlink">
	<desc>
			Created with Pixso.
	</desc>
	<defs/>
	<path id="Vector" d="M12.15 0C13.05 0 13.86 0.49 14.31 1.23C14.53 1.59 14.67 2.03 14.64 2.49C14.61 2.85 14.72 3.21 14.92 3.54C15.54 4.55 16.91 4.93 17.98 4.36C19.18 3.67 20.7 4.09 21.4 5.26L22.21 6.67C22.91 7.84 22.53 9.35 21.31 10.03C20.28 10.64 19.91 11.98 20.53 13.01C20.73 13.33 20.95 13.6 21.29 13.77C21.71 13.99 22.04 14.35 22.27 14.71C22.72 15.44 22.68 16.35 22.25 17.14L21.4 18.57C20.95 19.33 20.11 19.81 19.24 19.81C18.82 19.81 18.35 19.69 17.96 19.45C17.64 19.25 17.28 19.18 16.89 19.18C15.68 19.18 14.67 20.17 14.64 21.34C14.64 22.71 13.52 23.78 12.12 23.78L10.47 23.78C9.06 23.78 7.94 22.71 7.94 21.34C7.92 20.17 6.91 19.18 5.7 19.18C5.3 19.18 4.94 19.25 4.64 19.45C4.25 19.69 3.76 19.81 3.35 19.81C2.47 19.81 1.63 19.33 1.18 18.57L0.34 17.14C-0.11 16.37 -0.13 15.44 0.32 14.71C0.51 14.35 0.88 13.99 1.29 13.77C1.63 13.6 1.85 13.33 2.06 13.01C2.67 11.98 2.3 10.64 1.27 10.03C0.07 9.35 -0.32 7.84 0.37 6.67L1.18 5.26C1.89 4.09 3.4 3.67 4.61 4.36C5.67 4.93 7.04 4.55 7.66 3.54C7.86 3.21 7.97 2.85 7.94 2.49C7.92 2.03 8.05 1.59 8.28 1.23C8.73 0.49 9.55 0.02 10.43 0L12.15 0ZM11.31 8.53C9.4 8.53 7.86 10.03 7.86 11.9C7.86 13.77 9.4 15.25 11.31 15.25C13.22 15.25 14.72 13.77 14.72 11.9C14.72 10.03 13.22 8.53 11.31 8.53Z" fill="#8F8F8F" fill-opacity="1.000000" fill-rule="nonzero"/>
</svg>
